<?xml version="1.0" encoding="UTF-8" standalone="no"?>

<svg
   width="24.694019mm"
   height="21.581871mm"
   viewBox="0 0 24.694019 21.581871"
   version="1.1"
   id="svg1"
   xml:space="preserve"
   xmlns="http://www.w3.org/2000/svg"
   xmlns:svg="http://www.w3.org/2000/svg"><defs
     id="defs1" /><g
     id="layer1"
     transform="translate(-88.769039,-123.01559)"><path
       id="path1"
       style="fill:#000000;stroke-width:0.5"
       d="m 89.068234,123.01568 c -0.03621,-9.1e-4 -0.07087,0.005 -0.102837,0.017 l -5.16e-4,-5.1e-4 c -0.06394,0.0243 -0.117997,0.0741 -0.15503,0.14676 -0.0775,0.1519 -0.0641,0.19971 0.213424,0.77256 0.893867,1.84504 1.568546,3.47436 3.194637,7.71581 0.212003,0.55298 0.602787,1.55772 0.868164,2.23294 0.567006,1.44256 0.81858,2.08758 1.396297,3.57704 1.70746,4.40204 2.520321,6.4629 2.582788,6.5474 0.0242,0.0327 0.073,0.0773 0.108521,0.0982 0.0771,0.0453 0.242167,0.0493 0.319877,0.009 0.0301,-0.0159 0.291239,-0.26203 0.580326,-0.54725 1.117627,-1.10271 3.517475,-3.38687 3.558435,-3.38687 0.0187,0 0.36646,0.31069 1.53893,1.37407 1.2386,1.12326 1.48281,1.34031 2.13785,1.89911 0.472,0.40273 1.28753,1.04814 1.37615,1.08934 0.10025,0.0466 0.0872,0.0451 0.18086,0.0191 0.10141,-0.0282 0.20392,-0.13914 0.2279,-0.24649 0.0108,-0.0481 0.0118,-0.13853 0.003,-0.20103 -0.009,-0.0625 -0.0269,-0.31362 -0.0393,-0.5581 -0.021,-0.41307 -0.0278,-0.57566 -0.0548,-1.28054 -0.0102,-0.26655 -0.0146,-0.46392 -0.0532,-2.31769 -0.0339,-1.62852 -0.0846,-2.782 -0.15865,-3.61373 -0.0169,-0.18962 -0.0308,-0.37497 -0.031,-0.41187 -4.3e-4,-0.0658 0.008,-0.0713 0.44235,-0.3023 0.74564,-0.39622 1.50899,-0.75975 3.13417,-1.49293 1.81993,-0.82108 2.99152,-1.38782 3.06648,-1.48312 0.0588,-0.0747 0.0749,-0.17368 0.046,-0.28112 -0.0436,-0.16203 -0.11462,-0.20724 -0.6475,-0.41341 -1.02422,-0.39626 -1.71048,-0.66329 -4.24264,-1.64796 -1.43772,-0.55902 -2.7811,-1.08072 -2.98483,-1.15962 -0.20372,-0.0789 -0.60363,-0.23416 -0.88883,-0.34468 -3.17049,-1.22853 -5.014951,-1.93357 -7.493085,-2.86546 -1.992228,-0.74922 -4.309941,-1.59961 -6.095751,-2.23604 -1.553286,-0.55356 -1.827868,-0.65151 -1.915646,-0.68471 -0.03866,-0.0146 -0.07644,-0.0218 -0.112654,-0.0227 z m 4.618839,0.709 c 0.01309,0.009 0.08062,0.0397 0.187069,0.0796 1.220121,0.45612 3.141083,1.23811 6.587708,2.68201 3.89142,1.63024 5.4817,2.27255 7.31429,2.95434 0.34283,0.12754 0.69958,0.26091 0.79271,0.29611 0.16839,0.0636 0.26956,0.089 0.20102,0.0496 -0.0283,-0.0163 -1.39619,-0.59689 -3.54552,-1.50482 -4.06081,-1.71535 -7.393034,-3.05235 -9.927039,-3.98322 -0.827148,-0.30384 -1.582446,-0.57279 -1.610238,-0.57361 z m -2.316138,0.786 c 0,-0.008 0.08314,0.0168 0.185002,0.0548 0.101865,0.038 0.423651,0.15747 0.714685,0.2651 0.690478,0.25535 3.470157,1.29509 4.148584,1.55184 0.708421,0.26806 2.101179,0.79783 2.624646,0.99839 0.23284,0.0892 0.62319,0.23878 0.867647,0.33228 1.365411,0.52246 3.355011,1.29007 6.985101,2.69492 5.14892,1.99259 5.33396,2.06396 5.36298,2.06396 0.0132,0 0.0243,0.01 0.0243,0.0217 0,0.0369 -0.65419,0.35032 -2.54041,1.21853 -1.03778,0.47766 -2.62126,1.25814 -3.04685,1.5012 -0.13319,0.0761 -0.24274,0.13744 -0.24339,0.13694 -6.7e-4,-7.4e-4 -0.18189,-0.11778 -0.40308,-0.25993 -1.44058,-0.92575 -2.65359,-1.78308 -5.02708,-3.55224 -1.489923,-1.11057 -2.15358,-1.60076 -2.717147,-2.00867 -0.31267,-0.22626 -1.221952,-0.88708 -2.021066,-1.46812 -2.987208,-2.17206 -4.134564,-2.99954 -4.686535,-3.37912 -0.125147,-0.086 -0.227377,-0.16254 -0.227377,-0.17054 z m -1.071769,0.62218 c 0.0041,-0.004 0.04829,0.0375 0.0987,0.093 0.09185,0.10119 0.188639,0.20653 0.952914,1.03301 1.157559,1.2517 3.097278,3.33364 4.505668,4.8364 0.354587,0.37836 0.764939,0.81694 0.912089,0.9741 0.425643,0.45463 1.923346,2.04949 2.294433,2.44378 0.18626,0.19791 0.472734,0.50337 0.636654,0.67799 0.16392,0.17463 0.445846,0.47455 0.626316,0.66663 1.92699,2.05086 2.30581,2.45538 2.30581,2.46238 0,0.005 -0.15499,0.14996 -0.34417,0.32298 -1.29297,1.18254 -2.525853,2.3452 -3.94963,3.72277 -0.46984,0.45461 -0.860664,0.82847 -0.868164,0.83147 -0.008,0.003 -0.03876,-0.0589 -0.06976,-0.13745 -0.634126,-1.61024 -1.250096,-3.18463 -1.985926,-5.07515 -0.953028,-2.44838 -1.073522,-2.75629 -1.661914,-4.25452 -0.380129,-0.96788 -0.631437,-1.61617 -1.121378,-2.88923 -0.925298,-2.40411 -1.611179,-4.08696 -2.170927,-5.32784 -0.09247,-0.20501 -0.164714,-0.37634 -0.160714,-0.38034 z m 1.159619,0.27906 c 0.01109,-0.0111 0.858116,0.60211 3.098002,2.24379 0.753859,0.55252 2.24504,1.63991 2.772441,2.02158 1.025417,0.74211 1.534937,1.1177 3.143482,2.31769 2.44102,1.821 4.01809,2.91073 5.50302,3.80183 l 0.15916,0.0951 0.014,0.16795 c 0.0209,0.24574 0.0765,1.86308 0.10181,2.97242 0.0395,1.73496 0.069,2.64733 0.10852,3.31866 0.0132,0.22458 0.0198,0.4131 0.0139,0.4191 -0.006,0.006 -0.11821,-0.18289 -0.2496,-0.4191 -0.83497,-1.501 -1.68602,-2.82546 -2.46238,-3.83284 -0.12383,-0.16071 -0.22531,-0.30054 -0.22531,-0.30954 0,-0.0263 -0.11503,-0.16592 -0.27182,-0.32969 -0.078,-0.0815 -0.35609,-0.37689 -0.61805,-0.65629 -0.73232,-0.78108 -1.82909,-1.94924 -2.00711,-2.13786 -0.0879,-0.0931 -0.2366,-0.25033 -0.33021,-0.34933 -0.0936,-0.099 -0.308995,-0.32754 -0.478525,-0.50798 -1.381657,-1.47067 -3.100573,-3.29861 -3.224093,-3.42873 -0.0829,-0.0873 -0.298346,-0.3159 -0.478523,-0.50798 -0.18018,-0.19209 -0.395157,-0.42068 -0.478007,-0.50798 -0.0829,-0.0873 -0.615694,-0.654 -1.183907,-1.25936 -1.041195,-1.10923 -1.467181,-1.56307 -2.085661,-2.22157 -0.088,-0.0937 -0.31087,-0.33012 -0.49506,-0.52554 -0.184191,-0.19542 -0.330979,-0.35932 -0.326079,-0.36432 z m -0.587561,3.57756 c -0.01578,0.0158 0.676926,2.25245 1.043347,3.3693 0.653996,1.99346 1.29082,3.82937 2.155424,6.21357 0.484227,1.33526 1.575427,4.30701 1.674317,4.55993 0.009,0.0232 0.01989,0.0314 0.02429,0.0181 0.009,-0.0278 -0.207123,-0.72508 -0.491443,-1.58233 -0.270716,-0.81634 -0.536444,-1.57684 -1.014408,-2.90525 -0.973904,-2.70684 -1.178366,-3.28882 -2.36213,-6.71535 -0.600474,-1.73822 -0.594153,-1.71928 -0.816488,-2.36575 -0.113156,-0.32949 -0.208551,-0.59479 -0.21239,-0.59221 z m 18.244886,0.91622 c -0.004,4.7e-4 0.005,0.008 0.0248,0.0243 0.0741,0.0583 0.20759,0.12158 0.33848,0.15968 v -5.2e-4 c 0.12246,0.0356 0.28577,0.0513 0.28577,0.0279 0,-0.0231 -0.18858,-0.0911 -0.35088,-0.12661 -0.0921,-0.0201 -0.2011,-0.0491 -0.24185,-0.0651 l -5.1e-4,-5.2e-4 c -0.0342,-0.013 -0.0517,-0.0196 -0.0558,-0.0191 z m 2.91765,4.20181 c -0.10073,0 -0.26071,0.0802 -0.38499,0.19275 -0.0519,0.0471 -0.0759,0.0797 -0.0527,0.0708 0.0233,-0.008 0.12338,-0.0431 0.22221,-0.0775 0.27308,-0.0951 0.37823,-0.18501 0.216,-0.18501 z m -0.84026,0.42788 c -0.007,-0.001 -0.0161,-4.6e-4 -0.0264,0.004 v 5.2e-4 5.2e-4 c -0.0204,0.008 -0.14002,0.0527 -0.26613,0.0982 -0.82029,0.2959 -1.58984,0.65149 -2.00918,0.92863 -0.12515,0.0827 -0.22789,0.1552 -0.22789,0.1602 0,0.0178 0.0215,0.01 0.21807,-0.0739 0.10708,-0.0455 0.38523,-0.15887 0.61805,-0.25167 0.53788,-0.21452 0.82885,-0.34165 1.12345,-0.49196 0.27078,-0.13813 0.58084,-0.33218 0.58084,-0.36328 0,-0.006 -0.004,-0.01 -0.0109,-0.0114 z M 90.344641,136.08 c -0.570817,0.0244 -1.043658,0.38303 -1.230415,0.95601 -0.07478,0.22941 -0.0942,0.68509 -0.03979,0.92966 0.110029,0.49457 0.486969,0.89267 0.943095,0.99632 0.290855,0.0661 0.681686,0.009 0.982885,-0.14262 0.3421,-0.17251 0.64644,-0.50483 0.803569,-0.8785 0.159519,-0.37945 0.160734,-0.81288 0.001,-1.14102 -0.19021,-0.39275 -0.602538,-0.63442 -1.210262,-0.70952 -0.08499,-0.0105 -0.168568,-0.0138 -0.250114,-0.0103 z m 17.241839,0.12351 c -0.0451,-0.0829 -0.0757,1.43064 -0.0465,2.30373 0.046,1.37765 0.067,2.24939 0.0884,3.69383 0.0119,0.80328 0.0281,1.53173 0.0362,1.61903 l 0.015,0.15916 0.0145,-0.14831 c 0.0324,-0.32686 0.0391,-0.49981 0.0522,-1.32292 0.0152,-0.95427 -0.0218,-4.41676 -0.0543,-5.05912 -0.0261,-0.51599 -0.0848,-1.2075 -0.10542,-1.2454 z m 3.75585,1.3565 c -0.26209,2.8e-4 -0.38174,0.0468 -0.53485,0.20878 -0.16137,0.17063 -0.20416,0.30274 -0.20361,0.62735 6.1e-4,0.35148 0.0234,0.42523 0.17467,0.56844 0.15819,0.14975 0.25952,0.21606 0.38033,0.24856 v -5.2e-4 c 0.12372,0.0333 0.2009,0.0311 0.34004,0.009 0.26867,-0.051 0.52417,-0.24315 0.64233,-0.48317 0.0636,-0.12915 0.0687,-0.15773 0.0687,-0.34262 0,-0.175 -0.007,-0.21749 -0.0574,-0.32401 -0.0793,-0.16913 -0.27242,-0.3575 -0.45475,-0.4439 -0.13221,-0.0629 -0.16109,-0.0679 -0.35502,-0.0677 z m -8.26617,1.29863 c 0.007,0 0.0225,0.0163 0.0357,0.0367 0.0131,0.0204 0.18274,0.2836 0.37672,0.58446 0.3767,0.58429 1.05972,1.67395 1.56373,2.49546 0.16964,0.27649 0.30152,0.50176 0.29352,0.50126 -0.008,-7.1e-4 -0.11444,-0.0926 -0.23668,-0.20464 -0.685,-0.62787 -1.93511,-1.69219 -2.61792,-2.22829 -0.20012,-0.15714 -0.36471,-0.29227 -0.36536,-0.30127 -0.002,-0.0241 0.9225,-0.88367 0.95033,-0.88367 z m -12.03337,1.19683 c -0.16486,0.005 -0.330255,0.0299 -0.49196,0.0739 -0.754345,0.20535 -1.266057,0.91252 -1.309997,1.81023 -0.02677,0.54682 0.123869,1.04415 0.428397,1.41335 0.262919,0.31875 0.669039,0.54326 1.0573,0.58446 0.06985,0.007 0.274327,0.0128 0.454753,0.006 0.46005,-0.0108 0.696605,-0.0776 0.995288,-0.2806 0.511222,-0.34755 0.835101,-1.111 0.798401,-1.88154 -0.01523,-0.31982 -0.06152,-0.51966 -0.174667,-0.75344 -0.103642,-0.21414 -0.229972,-0.37768 -0.399975,-0.51832 -0.37293,-0.30846 -0.862983,-0.4674 -1.35754,-0.4532 z m 20.71398,1.10794 c -0.1424,7.1e-4 -0.28785,0.0543 -0.39377,0.1602 -0.1092,0.1092 -0.14567,0.2111 -0.13126,0.37 0.021,0.23155 0.15311,0.39559 0.37569,0.46819 0.0926,0.0302 0.27771,2.8e-4 0.39119,-0.0641 0.15761,-0.0886 0.22978,-0.20283 0.23978,-0.37931 0.0102,-0.18101 -0.0224,-0.30144 -0.10801,-0.39894 -0.0922,-0.10476 -0.23122,-0.15678 -0.37362,-0.15606 z m -9.86761,0.11007 c -0.022,0.006 -0.0741,0.0397 -0.14263,0.0982 -0.0656,0.056 -0.33841,0.27285 -0.60617,0.48162 -0.94842,0.73951 -1.320732,1.09957 -1.658292,1.60249 h -5.17e-4 c -0.0606,0.0902 -0.104555,0.16433 -0.09819,0.16433 0.012,0 0.381704,-0.31003 0.793749,-0.66559 0.67692,-0.58419 1.77484,-1.65423 1.56321,-1.52343 -0.0152,0.009 -0.0186,0.006 -0.009,-0.0103 0.008,-0.0137 0.0225,-0.0215 0.0315,-0.0155 0.009,0.006 0.0478,-0.0223 0.0868,-0.0625 0.0518,-0.0534 0.0595,-0.0734 0.0388,-0.0682 z m -2.733687,2.56625 c -0.0275,-0.0275 -0.40656,0.38121 -0.47594,0.51315 -0.0376,0.0715 -0.06873,0.13666 -0.06873,0.14366 0,0.007 0.02736,-0.007 0.06046,-0.031 0.11992,-0.0887 0.513138,-0.5968 0.484208,-0.6258 z" /></g></svg>
